{"title":"Partners in Crime 2000 DVDrip English Klam","uid":5786173,"size":949769013,"categoryP":"video","categoryS":"movies","magnet":"?xt=urn:btih:08406abebd570ad776c654065511e8435caad712&amp;dn=Partners+in+Crime+2000+DVDrip+English+Klam&amp;tr=udp%3A%2F%2Ftracker.openbittorrent.com%3A80&amp;tr=udp%3A%2F%2Fopen.demonii.com%3A1337&amp;tr=udp%3A%2F%2Ftracker.coppersurfer.tk%3A6969&amp;tr=udp%3A%2F%2Fexodus.desync.com%3A6969","seeders":0,"leechers":7,"uploader":"Klambake","files":-1,"time":1282641178,"description":"With: Rutger Hauer, Paulina Porizkova en Andrew Dolan\n\nGene Reardon (Hauer) is a twice-divorced police detective who lives with his daughter. When a well-heeled local man is kidnapped, the FBI is called in, which introduces Longsworth (played by Paulina Porizkova). Longsworth happens to have been Reardon's first wife. Reardon's police reputation stinks because he botched a high-profile kidnapping case many years ago, which resulted in a baby who was never found. When ransom demands are finally heard, Reardon must try to solve the case without repeating his mistakes.\n\nGeneral:\t\n\nComplete name                    : Partners in Crime\\Partners in Crime.avi\nFormat                           : AVI\nFormat/Info                      : Audio Video Interleave\nFile size                        : 903 MiB\nDuration                         : 1h 26mn\nOverall bit rate                 : 1 459 Kbps\n\nVideo:\n\nFormat                           : MPEG-4 Visual\nFormat profile                   : Simple@L3\nFormat settings, BVOP            : No\nFormat settings, QPel            : No\nFormat settings, GMC             : No warppoints\nFormat settings, Matrix          : Default (H.263)\nCodec ID                         : XVID\nCodec ID/Hint                    : XviD\nDuration                         : 1h 26mn\nBit rate                         : 1 000 Kbps\nWidth                            : 720 pixels\nHeight                           : 400 pixels\nDisplay aspect ratio             : 16:9\nFrame rate                       : 25.000 fps\nColor space                      : YUV\nChroma subsampling               : 4:2:0\nBit depth                        : 8 bits\nScan type                        : Progressive\nBits/(Pixel*Frame)               : 0.139\nStream size                      : 619 MiB (69%)\nWriting library                  : XviD 1.1.2 (UTC 2006-11-01)\n\nAudio:\n\nFormat                           : AC-3\nFormat/Info                      : Audio Coding 3\nMode extension                   : CM (complete main)\nCodec ID                         : 2000\nDuration                         : 1h 26mn\nBit rate mode                    : Constant\nBit rate                         : 448 Kbps\nChannel(s)                       : 6 channels\nChannel positions                : Front: L C R, Side: L R, LFE\nSampling rate                    : 48.0 KHz\nStream size                      : 277 MiB (31%)\nAlignment                        : Aligned on interleaves\nInterleave, duration             : 32 ms (0.80 video frame)\nInterleave, preload duration     : 64 ms","torrent":{"xt":"urn:btih:08406abebd570ad776c654065511e8435caad712","amp;dn":"Partners+in+Crime+2000+DVDrip+English+Klam","amp;tr":["udp%3A%2F%2Ftracker.openbittorrent.com%3A80","udp%3A%2F%2Fopen.demonii.com%3A1337","udp%3A%2F%2Ftracker.coppersurfer.tk%3A6969","udp%3A%2F%2Fexodus.desync.com%3A6969"],"infoHash":"08406abebd570ad776c654065511e8435caad712","infoHashBuffer":{"type":"Buffer","data":[8,64,106,190,189,87,10,215,118,198,84,6,85,17,232,67,92,170,215,18]},"announce":[],"urlList":[]}}